<?xml version="1.0" encoding="utf-8"?>
<!-- Generator: Adobe Illustrator 19.2.0, SVG Export Plug-In . SVG Version: 6.00 Build 0)  -->
<svg version="1.1" id="Layer_1" xmlns="http://www.w3.org/2000/svg" xmlns:xlink="http://www.w3.org/1999/xlink" x="0px" y="0px"
	 viewBox="0 0 15.9 16.1" style="enable-background:new 0 0 15.9 16.1;" xml:space="preserve">
<style type="text/css">
	.st0{display:none;}
	.st1{display:inline;fill:url(#SVGID_1_);}
</style>
<g class="st0">
	
		<linearGradient id="SVGID_1_" gradientUnits="userSpaceOnUse" x1="2.3789" y1="1956.1279" x2="13.6289" y2="1971.7946" gradientTransform="matrix(1 0 0 1 0 -1955)">
		<stop  offset="0" style="stop-color:#04BEFE"/>
		<stop  offset="0.5044" style="stop-color:#19A6F1"/>
		<stop  offset="1" style="stop-color:#318BE3"/>
	</linearGradient>
	<path class="st1" d="M15.2,5.5l-4.5-0.7l-2-4.3C8.6,0.2,8.3,0,7.9,0C7.6,0,7.3,0.2,7.1,0.5l-2,4.3L0.7,5.5C0.4,5.5,0.1,5.8,0,6.1
		C-0.1,6.4,0,6.8,0.2,7l3.3,3.3L2.7,15c-0.1,0.3,0.1,0.7,0.3,0.9c0.3,0.2,0.6,0.2,0.9,0.1l4-2.2l4,2.2c0.1,0.1,0.3,0.1,0.4,0.1
		c0.2,0,0.4-0.1,0.5-0.2c0.3-0.2,0.4-0.5,0.3-0.9l-0.8-4.7L15.6,7c0.2-0.2,0.3-0.6,0.2-0.9C15.8,5.7,15.5,5.5,15.2,5.5z"/>
</g>
<path d="M0,15.1c1.8-3.1,3.5-6,5.3-9.2c1.2,2.2,2.4,4.2,3.6,6.3c-1.4,0-2.6,0-3.9,0c0.3-1,1.7-1.7,0.2-2.9c-0.8,1.3-1.5,2.6-2.4,4
	c3.1,0,6.1,0,9.3,0c-1.5-2.7-3-5.4-4.5-8.1C7.4,5.6,7.1,5.9,6.9,6.2C5.8,4.6,5.4,5.7,8,1.4c2.6,4.6,5.2,9.1,7.9,13.7
	C10.6,15.1,5.4,15.1,0,15.1z"/>
</svg>
