<?xml version="1.0" encoding="utf-8"?>
<!-- Generator: Adobe Illustrator 19.2.0, SVG Export Plug-In . SVG Version: 6.00 Build 0)  -->
<svg version="1.1" id="Layer_1" xmlns="http://www.w3.org/2000/svg" xmlns:xlink="http://www.w3.org/1999/xlink" x="0px" y="0px"
	 viewBox="0 0 73.9 16.1" style="enable-background:new 0 0 73.9 16.1;" xml:space="preserve">
<style type="text/css">
	.st0{display:none;fill:#FFFFFF;stroke:#000000;stroke-miterlimit:10;}
</style>
<polygon class="st0" points="0.4,-43.6 0.4,-43.6 0.4,-43.6 "/>
<g>
	<g>
		<g>
			<path d="M33.4,2.3h6.1c0,0,0.9-0.8-0.4-1.9C38.5-0.1,37.6,0,37.6,0h-7L33.4,2.3z"/>
			<path d="M56.3,2.3H40.2c0,0,0.9-2.2,3.8-2.2h9.6c0,0,2.7-0.1,2.9,1.4C56.4,1.5,56.5,1.9,56.3,2.3"/>
			<path d="M56.9,2.2c0,0,1.5-2.2,3.5-2.2h13.4l-4.1,2.2L56.9,2.2z"/>
			<path d="M39.4,3.2l-1.3,4c0,0-0.8,2.3-3.5,2.2c-2.4,0-12.3,0-12.3,0l4.2-2.3h5.9c2,0,2.1-0.7,2.1-0.7l1-3.3L39.4,3.2z"/>
			<path d="M39.9,3.2h4l-1,2.9c0,0-0.4,1.1,0.7,1.1H50c0,0,0.8,0.1,1.2-1c0.4-1.1,0.9-2.8,0.9-2.8H56l-1.4,4.1c0,0-0.9,2-3.4,2H40.6
				c0,0-2.8,0.1-1.9-2.3C39.6,4.6,39.9,3.2,39.9,3.2"/>
			<path d="M56.7,3.3h3.9l-0.9,2.7c0,0-0.4,1.1,0.8,1.1h6.1c0,0,0.9,0,1.2-0.7l0.4-0.9h-3.1l-2.7-2.2h9.1c0,0,1.2-0.1,0.9,1.1
				l-1,2.9c0,0-0.6,2-3.9,2h-9.9c0,0-2.8-0.1-2.2-2.1C55.9,5.3,56.7,3.3,56.7,3.3"/>
		</g>
		<rect x="22.2" y="10.5" width="51.7" height="0.4"/>
	</g>
	<g>
		<path d="M25.4,15.2c0,0.2-0.1,0.4-0.4,0.6c-0.3,0.2-0.6,0.3-0.9,0.3c-0.2,0-0.4,0-0.5,0l0.1-0.5c0.1,0,0.2,0,0.2,0
			c0,0,0.1,0,0.2,0c0.1,0,0.2,0,0.3-0.1c0.1-0.1,0.1-0.1,0.1-0.2v-2.8h0.8V15.2z"/>
		<path d="M28.5,12.4c0.4,0,0.7,0.1,0.9,0.3s0.4,0.4,0.4,0.6v2c0,0.2-0.1,0.4-0.4,0.6c-0.3,0.2-0.6,0.3-0.9,0.3
			c-0.4,0-0.7-0.1-0.9-0.3c-0.3-0.2-0.4-0.4-0.4-0.6v-2c0-0.2,0.1-0.4,0.4-0.6C27.8,12.4,28.1,12.4,28.5,12.4z M28.9,13.2
			c0-0.1,0-0.2-0.1-0.2s-0.2-0.1-0.3-0.1c-0.1,0-0.2,0-0.3,0.1C28,13.1,28,13.1,28,13.2v2c0,0.1,0,0.2,0.1,0.2
			c0.1,0.1,0.2,0.1,0.3,0.1c0.1,0,0.2,0,0.3-0.1c0.1-0.1,0.1-0.1,0.1-0.2V13.2z"/>
		<path d="M32.4,16h-0.8v-3.6h0.8V16z"/>
		<path d="M35.2,12.4l1.1,2.5v-2.5h0.8V16h-0.9L35,13.7V16h-0.8v-3.6H35.2z"/>
		<path d="M42,12.4c0.4,0,0.7,0.1,0.9,0.3s0.4,0.4,0.4,0.6v2c0,0.2-0.1,0.4-0.4,0.6c-0.3,0.2-0.6,0.3-0.9,0.3
			c-0.4,0-0.7-0.1-0.9-0.3c-0.3-0.2-0.4-0.4-0.4-0.6v-2c0-0.2,0.1-0.4,0.4-0.6C41.3,12.4,41.6,12.4,42,12.4z M42.4,13.2
			c0-0.1,0-0.2-0.1-0.2c-0.1-0.1-0.2-0.1-0.3-0.1c-0.1,0-0.2,0-0.3,0.1c-0.1,0.1-0.1,0.1-0.1,0.2v2c0,0.1,0,0.2,0.1,0.2
			c0.1,0.1,0.2,0.1,0.3,0.1c0.1,0,0.2,0,0.3-0.1c0.1-0.1,0.1-0.1,0.1-0.2V13.2z"/>
		<path d="M46.4,16.1c-0.4,0-0.7-0.1-0.9-0.3c-0.3-0.2-0.4-0.4-0.4-0.6v-2.8h0.8v2.8c0,0.1,0,0.2,0.1,0.2c0.1,0.1,0.2,0.1,0.3,0.1
			c0.1,0,0.2,0,0.3-0.1c0.1-0.1,0.1-0.1,0.1-0.2v-2.8h0.9v2.8c0,0.2-0.1,0.4-0.4,0.6C47.1,16,46.7,16.1,46.4,16.1z"/>
		<path d="M50.8,12.4c0.5,0,0.8,0.1,1,0.3c0.2,0.1,0.3,0.4,0.3,0.6v0.5c0,0.3-0.1,0.5-0.4,0.7l0.6,1.6h-0.9l-0.5-1.4c0,0,0,0-0.1,0
			h-0.5V16h-0.8v-3.6H50.8z M51.3,13.3c0-0.2-0.2-0.3-0.5-0.3h-0.5v1.2h0.5c0.1,0,0.2,0,0.3-0.1c0.1-0.1,0.1-0.1,0.1-0.2V13.3z"/>
		<path d="M57.2,16.1c-0.4,0-0.7-0.1-0.9-0.3c-0.3-0.2-0.4-0.4-0.4-0.6v-2c0-0.2,0.1-0.4,0.4-0.6c0.3-0.2,0.6-0.3,0.9-0.3
			c0.4,0,0.7,0.1,0.9,0.3c0.3,0.2,0.4,0.4,0.4,0.6v0.4h-0.9v-0.4c0-0.1,0-0.2-0.1-0.2c-0.1-0.1-0.2-0.1-0.3-0.1
			c-0.1,0-0.2,0-0.3,0.1c-0.1,0.1-0.1,0.1-0.1,0.2v2c0,0.1,0,0.2,0.1,0.2c0.1,0.1,0.2,0.1,0.3,0.1c0.1,0,0.2,0,0.3-0.1
			c0.1-0.1,0.1-0.1,0.1-0.2v-0.7h-0.5v-0.6h1.3v1.3c0,0.2-0.1,0.4-0.4,0.6C57.8,16,57.5,16.1,57.2,16.1z"/>
		<path d="M61.3,15.2L61.1,16h-0.9l0.9-3.6h1.1l0.9,3.6h-0.9l-0.2-0.8H61.3z M61.8,13.2l-0.3,1.4h0.6L61.8,13.2z"/>
		<path d="M65.9,16h-0.8v-3.6h1.2L67,15l0.7-2.6h1.1V16h-0.8v-2.3L67.3,16h-0.7l-0.8-2.3V16z"/>
		<path d="M70.7,16v-3.6H73v0.6h-1.5v1h1.1v0.6h-1.1v1H73V16H70.7z"/>
	</g>
</g>
<g>
	<polygon points="6.5,4.2 8.8,0.2 17.4,16.1 0,16.1 5.9,5.4 9.8,12.8 5.4,12.8 6.7,10.7 5.9,9.1 3.2,14 13.4,14 8.4,4.5 7.6,5.9 	
		"/>
</g>
</svg>
