<?xml version="1.0" encoding="utf-8"?>
<!-- Generator: Adobe Illustrator 19.2.0, SVG Export Plug-In . SVG Version: 6.00 Build 0)  -->
<svg version="1.1" id="Layer_1" xmlns="http://www.w3.org/2000/svg" xmlns:xlink="http://www.w3.org/1999/xlink" x="0px" y="0px"
	 viewBox="0 0 130.7 25.6" style="enable-background:new 0 0 130.7 25.6;" xml:space="preserve">
<title>logo</title>
<desc>Created with Sketch.</desc>
<g>
	<g>
		<g>
			<path d="M58.6,4.1h9.3c0,0,1.4-1.2-0.6-2.9C66.4,0.5,65,0.6,65,0.6H54.3L58.6,4.1z"/>
			<path d="M93.6,4.1H69c0,0,1.4-3.4,5.8-3.4h14.7c0,0,4.1-0.2,4.4,2.1C93.8,2.9,93.9,3.5,93.6,4.1"/>
			<path d="M94.5,4c0,0,2.3-3.4,5.3-3.4h20.5L114.1,4H94.5z"/>
			<path d="M67.8,5.5l-2,6.1c0,0-1.2,3.5-5.3,3.4c-3.7,0-18.8,0-18.8,0l6.4-3.5h9c3.1,0,3.2-1.1,3.2-1.1l1.5-5L67.8,5.5z"/>
			<path d="M68.6,5.5h6.1l-1.5,4.4c0,0-0.6,1.7,1.1,1.7H84c0,0,1.2,0.2,1.8-1.5c0.6-1.7,1.4-4.3,1.4-4.3h6L91,12.1
				c0,0-1.4,3.1-5.2,3.1H69.6c0,0-4.3,0.2-2.9-3.5C68.1,7.7,68.6,5.5,68.6,5.5"/>
			<path d="M94.2,5.7h6l-1.4,4.1c0,0-0.6,1.7,1.2,1.7h9.3c0,0,1.4,0,1.8-1.1l0.6-1.4h-4.7l-4.1-3.4h13.9c0,0,1.8-0.2,1.4,1.7
				l-1.5,4.4c0,0-0.9,3.1-6,3.1H95.6c0,0-4.3-0.2-3.4-3.2C93,8.7,94.2,5.7,94.2,5.7"/>
		</g>
		<rect x="41.5" y="16.7" width="79" height="0.6"/>
	</g>
	<g>
		<path d="M46.4,23.8c0,0.3-0.2,0.6-0.6,0.9c-0.5,0.3-0.9,0.5-1.4,0.5c-0.3,0-0.6,0-0.8,0l0.2-0.8c0.2,0,0.3,0,0.3,0s0.2,0,0.3,0
			c0.2,0,0.3,0,0.5-0.2C45,24.2,45,24.2,45,24v-4.3h1.2v4.1H46.4z"/>
		<path d="M51.1,19.6c0.6,0,1.1,0.2,1.4,0.5c0.3,0.3,0.6,0.6,0.6,0.9V24c0,0.3-0.2,0.6-0.6,0.9c-0.5,0.3-0.9,0.5-1.4,0.5
			c-0.6,0-1.1-0.2-1.4-0.5c-0.5-0.3-0.6-0.6-0.6-0.9v-3.1c0-0.3,0.2-0.6,0.6-0.9C50.1,19.6,50.5,19.6,51.1,19.6z M51.7,20.8
			c0-0.2,0-0.3-0.2-0.3s-0.3-0.2-0.5-0.2s-0.3,0-0.5,0.2c-0.3,0.2-0.3,0.2-0.3,0.3v3.1c0,0.2,0,0.3,0.2,0.3c0.2,0.2,0.3,0.2,0.5,0.2
			c0.2,0,0.3,0,0.5-0.2s0.2-0.2,0.2-0.3v-3.1H51.7z"/>
		<path d="M57.1,25.1h-1.2v-5.5h1.2V25.1z"/>
		<path d="M61.4,19.6l1.7,3.8v-3.8h1.2v5.5h-1.4l-1.8-3.5v3.5h-1.2v-5.5H61.4z"/>
		<path d="M71.8,19.6c0.6,0,1.1,0.2,1.4,0.5c0.3,0.3,0.6,0.6,0.6,0.9V24c0,0.3-0.2,0.6-0.6,0.9c-0.5,0.3-0.9,0.5-1.4,0.5
			c-0.6,0-1.1-0.2-1.4-0.5c-0.5-0.3-0.6-0.6-0.6-0.9v-3.1c0-0.3,0.2-0.6,0.6-0.9C70.7,19.6,71.1,19.6,71.8,19.6z M72.4,20.8
			c0-0.2,0-0.3-0.2-0.3c-0.2-0.2-0.3-0.2-0.5-0.2c-0.2,0-0.3,0-0.5,0.2c-0.2,0.2-0.2,0.2-0.2,0.3v3.1c0,0.2,0,0.3,0.2,0.3
			c0.2,0.2,0.3,0.2,0.5,0.2c0.2,0,0.3,0,0.5-0.2s0.2-0.2,0.2-0.3V20.8z"/>
		<path d="M78.5,25.2c-0.6,0-1.1-0.2-1.4-0.5c-0.5-0.3-0.6-0.6-0.6-0.9v-4.3h1.2v4.3c0,0.2,0,0.3,0.2,0.3c0.2,0.2,0.3,0.2,0.5,0.2
			s0.3,0,0.5-0.2c0.2-0.2,0.2-0.2,0.2-0.3v-4.3h1.4v4.3c0,0.3-0.2,0.6-0.6,0.9C79.6,25.1,78.9,25.2,78.5,25.2z"/>
		<path d="M85.2,19.6c0.8,0,1.2,0.2,1.5,0.5c0.3,0.2,0.5,0.6,0.5,0.9v0.8c0,0.5-0.2,0.8-0.6,1.1l0.9,2.4h-1.4l-0.8-2.1
			c0,0,0,0-0.2,0h-0.8v2h-1.2v-5.5H85.2z M86,20.9c0-0.3-0.3-0.5-0.8-0.5h-0.8v1.8h0.8c0.2,0,0.3,0,0.5-0.2c0.2-0.2,0.2-0.2,0.2-0.3
			v-0.9H86z"/>
		<path d="M95,25.2c-0.6,0-1.1-0.2-1.4-0.5c-0.5-0.3-0.6-0.6-0.6-0.9v-3.1c0-0.3,0.2-0.6,0.6-0.9c0.5-0.3,0.9-0.5,1.4-0.5
			c0.6,0,1.1,0.2,1.4,0.5c0.5,0.3,0.6,0.6,0.6,0.9v0.6h-1.4v-0.6c0-0.2,0-0.3-0.2-0.3c-0.2-0.2-0.3-0.2-0.5-0.2s-0.3,0-0.5,0.2
			c-0.2,0.2-0.2,0.2-0.2,0.3v3.1c0,0.2,0,0.3,0.2,0.3c0.2,0.2,0.3,0.2,0.5,0.2s0.3,0,0.5-0.2c0.2-0.2,0.2-0.2,0.2-0.3v-1.1h-0.8
			v-0.9h2v2c0,0.3-0.2,0.6-0.6,0.9C95.9,25.1,95.4,25.2,95,25.2z"/>
		<path d="M101.3,23.8l-0.3,1.2h-1.4l1.4-5.5h1.7l1.4,5.5h-1.4l-0.3-1.2H101.3z M102,20.8l-0.5,2.1h0.9L102,20.8z"/>
		<path d="M108.3,25.1h-1.2v-5.5h1.8l1.1,4l1.1-4h1.7v5.5h-1.2v-3.5l-1.1,3.5h-1.1l-1.2-3.5v3.5H108.3z"/>
		<path d="M115.6,25.1v-5.5h3.5v0.9h-2.3V22h1.7v0.9h-1.7v1.5h2.3v0.6H115.6z"/>
	</g>
</g>
<g>
	<polygon points="17.5,7 21,0.9 34.2,25.2 7.6,25.2 16.6,8.9 22.6,20.2 15.8,20.2 17.8,17 16.6,14.5 12.5,22 28.1,22 20.4,7.5 
		19.2,9.6 	"/>
</g>
</svg>
