<?xml version="1.0" encoding="utf-8"?>
<!-- Generator: Adobe Illustrator 19.2.0, SVG Export Plug-In . SVG Version: 6.00 Build 0)  -->
<svg version="1.1" id="Layer_1" xmlns="http://www.w3.org/2000/svg" xmlns:xlink="http://www.w3.org/1999/xlink" x="0px" y="0px"
	 viewBox="0 0 223.4 28.6" style="enable-background:new 0 0 223.4 28.6;" xml:space="preserve">
<style type="text/css">
	.st0{fill:#FFFFFF;}
</style>
<g>
	<g>
		<g>
			<path class="st0" d="M58.6,5.1h9.3c0,0,1.4-1.2-0.6-2.9C66.4,1.5,65,1.6,65,1.6H54.3L58.6,5.1z"/>
			<path class="st0" d="M93.6,5.1H69c0,0,1.4-3.4,5.8-3.4h14.7c0,0,4.1-0.2,4.4,2.1C93.8,3.9,93.9,4.5,93.6,5.1"/>
			<path class="st0" d="M94.5,5c0,0,2.3-3.4,5.3-3.4h20.5L114.1,5H94.5z"/>
			<path class="st0" d="M67.8,6.5l-2,6.1c0,0-1.2,3.5-5.3,3.4c-3.7,0-18.8,0-18.8,0l6.4-3.5h9c3.1,0,3.2-1.1,3.2-1.1l1.5-5L67.8,6.5
				z"/>
			<path class="st0" d="M68.6,6.5h6.1l-1.5,4.4c0,0-0.6,1.7,1.1,1.7H84c0,0,1.2,0.2,1.8-1.5c0.6-1.7,1.4-4.3,1.4-4.3h6L91,13.1
				c0,0-1.4,3.1-5.2,3.1H69.6c0,0-4.3,0.2-2.9-3.5C68.1,8.7,68.6,6.5,68.6,6.5"/>
			<path class="st0" d="M94.2,6.7h6l-1.4,4.1c0,0-0.6,1.7,1.2,1.7h9.3c0,0,1.4,0,1.8-1.1l0.6-1.4h-4.7l-4.1-3.4h13.9
				c0,0,1.8-0.2,1.4,1.7l-1.5,4.4c0,0-0.9,3.1-6,3.1H95.6c0,0-4.3-0.2-3.4-3.2C93,9.7,94.2,6.7,94.2,6.7"/>
		</g>
		<rect x="41.5" y="17.7" class="st0" width="79" height="0.6"/>
	</g>
	<g>
		<path class="st0" d="M46.4,24.8c0,0.3-0.2,0.6-0.6,0.9c-0.5,0.3-0.9,0.5-1.4,0.5c-0.3,0-0.6,0-0.8,0l0.2-0.8c0.2,0,0.3,0,0.3,0
			s0.2,0,0.3,0c0.2,0,0.3,0,0.5-0.2C45,25.2,45,25.2,45,25v-4.3h1.2v4.1H46.4z"/>
		<path class="st0" d="M51.1,20.6c0.6,0,1.1,0.2,1.4,0.5c0.3,0.3,0.6,0.6,0.6,0.9V25c0,0.3-0.2,0.6-0.6,0.9
			c-0.5,0.3-0.9,0.5-1.4,0.5c-0.6,0-1.1-0.2-1.4-0.5c-0.5-0.3-0.6-0.6-0.6-0.9v-3.1c0-0.3,0.2-0.6,0.6-0.9
			C50.1,20.6,50.5,20.6,51.1,20.6z M51.7,21.8c0-0.2,0-0.3-0.2-0.3s-0.3-0.2-0.5-0.2s-0.3,0-0.5,0.2c-0.3,0.2-0.3,0.2-0.3,0.3v3.1
			c0,0.2,0,0.3,0.2,0.3c0.2,0.2,0.3,0.2,0.5,0.2c0.2,0,0.3,0,0.5-0.2s0.2-0.2,0.2-0.3v-3.1H51.7z"/>
		<path class="st0" d="M57.1,26.1h-1.2v-5.5h1.2V26.1z"/>
		<path class="st0" d="M61.4,20.6l1.7,3.8v-3.8h1.2v5.5h-1.4l-1.8-3.5v3.5h-1.2v-5.5H61.4z"/>
		<path class="st0" d="M71.8,20.6c0.6,0,1.1,0.2,1.4,0.5c0.3,0.3,0.6,0.6,0.6,0.9V25c0,0.3-0.2,0.6-0.6,0.9
			c-0.5,0.3-0.9,0.5-1.4,0.5c-0.6,0-1.1-0.2-1.4-0.5c-0.5-0.3-0.6-0.6-0.6-0.9v-3.1c0-0.3,0.2-0.6,0.6-0.9
			C70.7,20.6,71.1,20.6,71.8,20.6z M72.4,21.8c0-0.2,0-0.3-0.2-0.3c-0.2-0.2-0.3-0.2-0.5-0.2c-0.2,0-0.3,0-0.5,0.2
			c-0.2,0.2-0.2,0.2-0.2,0.3v3.1c0,0.2,0,0.3,0.2,0.3c0.2,0.2,0.3,0.2,0.5,0.2c0.2,0,0.3,0,0.5-0.2s0.2-0.2,0.2-0.3V21.8z"/>
		<path class="st0" d="M78.5,26.2c-0.6,0-1.1-0.2-1.4-0.5c-0.5-0.3-0.6-0.6-0.6-0.9v-4.3h1.2v4.3c0,0.2,0,0.3,0.2,0.3
			c0.2,0.2,0.3,0.2,0.5,0.2s0.3,0,0.5-0.2c0.2-0.2,0.2-0.2,0.2-0.3v-4.3h1.4v4.3c0,0.3-0.2,0.6-0.6,0.9
			C79.6,26.1,78.9,26.2,78.5,26.2z"/>
		<path class="st0" d="M85.2,20.6c0.8,0,1.2,0.2,1.5,0.5c0.3,0.2,0.5,0.6,0.5,0.9v0.8c0,0.5-0.2,0.8-0.6,1.1l0.9,2.4h-1.4l-0.8-2.1
			c0,0,0,0-0.2,0h-0.8v2h-1.2v-5.5H85.2z M86,21.9c0-0.3-0.3-0.5-0.8-0.5h-0.8v1.8h0.8c0.2,0,0.3,0,0.5-0.2c0.2-0.2,0.2-0.2,0.2-0.3
			v-0.9H86z"/>
		<path class="st0" d="M95,26.2c-0.6,0-1.1-0.2-1.4-0.5c-0.5-0.3-0.6-0.6-0.6-0.9v-3.1c0-0.3,0.2-0.6,0.6-0.9
			c0.5-0.3,0.9-0.5,1.4-0.5c0.6,0,1.1,0.2,1.4,0.5c0.5,0.3,0.6,0.6,0.6,0.9v0.6h-1.4v-0.6c0-0.2,0-0.3-0.2-0.3
			c-0.2-0.2-0.3-0.2-0.5-0.2s-0.3,0-0.5,0.2c-0.2,0.2-0.2,0.2-0.2,0.3v3.1c0,0.2,0,0.3,0.2,0.3c0.2,0.2,0.3,0.2,0.5,0.2
			s0.3,0,0.5-0.2c0.2-0.2,0.2-0.2,0.2-0.3v-1.1h-0.8v-0.9h2v2c0,0.3-0.2,0.6-0.6,0.9C95.9,26.1,95.4,26.2,95,26.2z"/>
		<path class="st0" d="M101.3,24.8l-0.3,1.2h-1.4l1.4-5.5h1.7l1.4,5.5h-1.4l-0.3-1.2H101.3z M102,21.8l-0.5,2.1h0.9L102,21.8z"/>
		<path class="st0" d="M108.3,26.1h-1.2v-5.5h1.8l1.1,4l1.1-4h1.7v5.5h-1.2v-3.5l-1.1,3.5h-1.1l-1.2-3.5v3.5H108.3z"/>
		<path class="st0" d="M115.6,26.1v-5.5h3.5v0.9h-2.3V23h1.7v0.9h-1.7v1.5h2.3v0.6H115.6z"/>
	</g>
</g>
<g>
	<polygon points="17.5,8 21,1.9 34.2,26.2 7.6,26.2 16.6,9.9 22.6,21.2 15.8,21.2 17.8,18 16.6,15.5 12.5,23 28.1,23 20.4,8.5 
		19.2,10.6 	"/>
</g>
</svg>
